<svg width="28" height="29" viewBox="0 0 28 29" fill="none" xmlns="http://www.w3.org/2000/svg">
<g id="material-symbols:explore-outline-rounded">
<path id="Vector" d="M14 15.6667C13.6695 15.6667 13.3922 15.5547 13.1682 15.3307C12.9442 15.1067 12.8326 14.8298 12.8333 14.5C12.8333 14.1695 12.9453 13.8922 13.1693 13.6682C13.3933 13.4442 13.6702 13.3326 14 13.3333C14.3306 13.3333 14.6078 13.4453 14.8318 13.6693C15.0558 13.8933 15.1675 14.1702 15.1667 14.5C15.1667 14.8306 15.0547 15.1078 14.8307 15.3318C14.6067 15.5558 14.3298 15.6675 14 15.6667ZM14 26.1667C12.3861 26.1667 10.8695 25.8602 9.45001 25.2473C8.03057 24.6345 6.79584 23.8034 5.74584 22.7542C4.69584 21.7042 3.86479 20.4695 3.25268 19.05C2.64057 17.6306 2.33412 16.1139 2.33334 14.5C2.33334 12.8861 2.63979 11.3695 3.25268 9.95001C3.86557 8.53057 4.69662 7.29584 5.74584 6.24584C6.79584 5.19584 8.03057 4.36479 9.45001 3.75268C10.8695 3.14057 12.3861 2.83412 14 2.83334C15.6139 2.83334 17.1306 3.13979 18.55 3.75268C19.9695 4.36557 21.2042 5.19662 22.2542 6.24584C23.3042 7.29584 24.1356 8.53057 24.7485 9.95001C25.3614 11.3695 25.6675 12.8861 25.6667 14.5C25.6667 16.1139 25.3602 17.6306 24.7473 19.05C24.1345 20.4695 23.3034 21.7042 22.2542 22.7542C21.2042 23.8042 19.9695 24.6356 18.55 25.2485C17.1306 25.8614 15.6139 26.1675 14 26.1667ZM14 23.8333C16.6056 23.8333 18.8125 22.9292 20.6208 21.1208C22.4292 19.3125 23.3333 17.1056 23.3333 14.5C23.3333 11.8945 22.4292 9.68751 20.6208 7.87918C18.8125 6.07084 16.6056 5.16668 14 5.16668C11.3945 5.16668 9.18751 6.07084 7.37918 7.87918C5.57084 9.68751 4.66668 11.8945 4.66668 14.5C4.66668 17.1056 5.57084 19.3125 7.37918 21.1208C9.18751 22.9292 11.3945 23.8333 14 23.8333ZM8.66251 20.4208L15.9542 17.0083C16.0708 16.95 16.1778 16.8722 16.275 16.775C16.3722 16.6778 16.45 16.5708 16.5083 16.4542L19.9208 9.16251C20.0181 8.96807 19.9936 8.79773 19.8473 8.65151C19.7011 8.50529 19.5312 8.48118 19.3375 8.57918L12.0458 11.9917C11.9292 12.05 11.8222 12.1278 11.725 12.225C11.6278 12.3222 11.55 12.4292 11.4917 12.5458L8.07918 19.8375C7.98195 20.032 8.00645 20.2023 8.15268 20.3485C8.2989 20.4947 8.46884 20.5188 8.66251 20.4208Z" fill="#7A7A7A"/>
</g>
</svg>
